# xmcd
#
# Track frame offsets:
#	150
#	12142
#	25727
#	38577
#	53037
#	65257
#	78122
#	91340
#
# Disc length: 1438 seconds
#
# Revision: 1
# Processed by: cddbd v1.5.2PL0 Copyright (c) Steve Scherf et al.
# Submitted via: audiograbber 1.83.01
#
DISCID=4c059c08
DTITLE=Merle Haggard - I Take A Lot Of Pride In What I Am
DYEAR=2005
DGENRE=Country
TTITLE0=Carolyn
TTITLE1=Holding Things Together
TTITLE2=I'm Always On A Mountain When I Fall
TTITLE3=I'm A Lonesome Fugitive
TTITLE4=I Take A Lot Of Pride In Who I Am
TTITLE5=It's Been A Great Afternoon
TTITLE6=Misery And Gin
TTITLE7=Ramblin' Fever
EXTD=
EXTT0=
EXTT1=
EXTT2=
EXTT3=
EXTT4=
EXTT5=
EXTT6=
EXTT7=
PLAYORDER=
